# xmcd
#
# Track frame offsets:
# 150
# 17713
# 29118
# 47583
# 65058
# 77758
# 93283
# 111770
# 126108
# 145725
# 163682
#
# Disc length: 2441 seconds
#
#
# Revision: 0
# Processed by: cddbd v1.4PL0 Copyright (c) Steve Scherf et al.
# Submitted via: FreeRIP 2.40 
#
DISCID=9209870b
DTITLE=Dwight Yoakam - Dwight live
DYEAR=1900
DGENRE=Country
TTITLE0=Little Sister
TTITLE1=It Only Hurts Me When I Cry
TTITLE2=The Heart That You Own
TTITLE3=This Name
TTITLE4=Streets Of Bakersfield
TTITLE5=Little Ways
TTITLE6=Please Please Baby
TTITLE7=Lonesome Roads
TTITLE8=1,000 Miles From Nowhere
TTITLE9=Two Doors Down
TTITLE10=Fast As You
EXTD=
EXTT0=
EXTT1=
EXTT2=
EXTT3=
EXTT4=
EXTT5=
EXTT6=
EXTT7=
EXTT8=
EXTT9=
EXTT10=
PLAYORDER=
